<svg preserveAspectRatio="none" overflow="visible" style="display: block;" width="11.6667" height="8.75" viewBox="0 0 11.6667 8.75" fill="none" xmlns="http://www.w3.org/2000/svg">
<path id="Vector" fill-rule="evenodd" clip-rule="evenodd" d="M3.32915 0.170854C3.55695 0.39866 3.55695 0.768006 3.32915 0.995812L1.99162 2.33333H8.45833C10.2302 2.33333 11.6667 3.76975 11.6667 5.54167C11.6667 7.31358 10.2302 8.75 8.45833 8.75H5.83333C5.51117 8.75 5.25 8.48883 5.25 8.16667C5.25 7.8445 5.51117 7.58333 5.83333 7.58333H8.45833C9.58592 7.58333 10.5 6.66925 10.5 5.54167C10.5 4.41409 9.58592 3.5 8.45833 3.5H1.99162L3.32915 4.83752C3.55695 5.06533 3.55695 5.43467 3.32915 5.66248C3.10134 5.89028 2.73199 5.89028 2.50419 5.66248L0.170854 3.32915C-0.0569515 3.10134 -0.0569515 2.73199 0.170854 2.50419L2.50419 0.170854C2.73199 -0.0569515 3.10134 -0.0569515 3.32915 0.170854Z" fill="#1C1F23" fill-opacity="0.8"/>
</svg>
