<svg preserveAspectRatio="none" overflow="visible" style="display: block;" width="7.61905" height="7.61905" viewBox="0 0 7.61905 7.61905" fill="none" xmlns="http://www.w3.org/2000/svg">
<path id="Vector" fill-rule="evenodd" clip-rule="evenodd" d="M2.19379 1.64301e-07H5.42526C5.73191 -4.6949e-06 5.985 -8.69092e-06 6.19117 0.016836C6.4053 0.0343313 6.60214 0.0718796 6.78703 0.166086C7.07376 0.312178 7.30687 0.545291 7.45296 0.832015C7.54717 1.0169 7.58472 1.21374 7.60221 1.42788C7.61906 1.63404 7.61905 1.88713 7.61905 2.19378V5.42527C7.61905 5.73192 7.61906 5.985 7.60221 6.19117C7.58472 6.4053 7.54717 6.60214 7.45296 6.78703C7.30687 7.07376 7.07376 7.30687 6.78703 7.45296C6.60214 7.54717 6.4053 7.58472 6.19117 7.60221C5.985 7.61906 5.73192 7.61905 5.42527 7.61905H2.19378C2.18459 7.61905 2.17545 7.61905 2.16636 7.61905L1.86444 7.61905C1.76144 7.61906 1.66019 7.61908 1.57868 7.61186C1.57563 7.61159 1.57245 7.6113 1.56914 7.61099C1.51979 7.60874 1.47272 7.60588 1.42788 7.60221C1.21374 7.58472 1.0169 7.54717 0.832015 7.45296C0.545291 7.30687 0.312178 7.07376 0.166086 6.78703C0.0718796 6.60214 0.0343313 6.4053 0.016836 6.19117C-8.69092e-06 5.985 -4.6949e-06 5.73191 1.64301e-07 5.42526V2.19379C-4.6949e-06 1.88714 -8.69092e-06 1.63405 0.016836 1.42788C0.0343313 1.21374 0.0718796 1.0169 0.166086 0.832015C0.312178 0.545292 0.545292 0.312178 0.832015 0.166086C1.0169 0.0718796 1.21374 0.0343313 1.42788 0.016836C1.63405 -8.69092e-06 1.88714 -4.6949e-06 2.19379 1.64301e-07ZM2.20952 6.85714C2.15803 6.85714 2.10914 6.85714 2.06263 6.85707L5.17171 3.74799C5.25158 3.66812 5.2955 3.62462 5.32947 3.59578C5.33083 3.59463 5.33211 3.59355 5.33333 3.59253C5.33455 3.59355 5.33584 3.59463 5.33719 3.59578C5.37116 3.62462 5.41508 3.66811 5.49496 3.74799L6.85714 5.11018V5.40952C6.85714 5.73584 6.85685 5.95767 6.84284 6.12913C6.82919 6.29614 6.80446 6.38156 6.7741 6.44114C6.70105 6.5845 6.5845 6.70105 6.44114 6.7741C6.38156 6.80446 6.29614 6.82919 6.12913 6.84284C5.95767 6.85685 5.73584 6.85714 5.40952 6.85714H2.20952ZM6.85714 4.03268L6.02512 3.20066C5.95714 3.13266 5.89094 3.06644 5.83028 3.01495C5.76367 2.9584 5.67914 2.89761 5.56877 2.86175C5.41575 2.81203 5.25092 2.81203 5.09789 2.86175C4.98752 2.89761 4.90299 2.9584 4.83638 3.01495C4.77573 3.06644 4.70953 3.13266 4.64155 3.20065L1.38372 6.45848C1.31088 6.5313 1.23927 6.60289 1.18674 6.66563C1.17052 6.68501 1.14865 6.7118 1.12646 6.74533C1.00665 6.67209 0.909045 6.56693 0.844948 6.44113C0.81459 6.38155 0.789856 6.29614 0.77621 6.12913C0.762201 5.95767 0.761905 5.73584 0.761905 5.40952V2.20952C0.761905 1.88321 0.762201 1.66138 0.77621 1.48992C0.789856 1.3229 0.81459 1.23749 0.844948 1.17791C0.917994 1.03455 1.03455 0.917994 1.17791 0.844948C1.23749 0.81459 1.3229 0.789856 1.48992 0.77621C1.66138 0.762201 1.88321 0.761905 2.20952 0.761905H5.40952C5.73584 0.761905 5.95767 0.762201 6.12913 0.77621C6.29614 0.789856 6.38155 0.81459 6.44113 0.844948C6.5845 0.917994 6.70105 1.03455 6.7741 1.17791C6.80446 1.23749 6.82919 1.3229 6.84284 1.48992C6.85685 1.66138 6.85714 1.88321 6.85714 2.20952V4.03268ZM2.47619 2.09524C2.2658 2.09524 2.09524 2.2658 2.09524 2.47619C2.09524 2.68658 2.2658 2.85714 2.47619 2.85714C2.68658 2.85714 2.85714 2.68658 2.85714 2.47619C2.85714 2.2658 2.68658 2.09524 2.47619 2.09524ZM1.33333 2.47619C1.33333 1.84501 1.84501 1.33333 2.47619 1.33333C3.10737 1.33333 3.61905 1.84501 3.61905 2.47619C3.61905 3.10737 3.10737 3.61905 2.47619 3.61905C1.84501 3.61905 1.33333 3.10737 1.33333 2.47619Z" fill="#B74EC2"/>
</svg>
