<svg preserveAspectRatio="none" overflow="visible" style="display: block;" width="14.6667" height="13.3335" viewBox="0 0 14.6667 13.3335" fill="none" xmlns="http://www.w3.org/2000/svg">
<path id="Vector" fill-rule="evenodd" clip-rule="evenodd" d="M6.06 1.36991C5.97958 1.34218 5.87514 1.33348 5.3482 1.33348H2.8C2.41563 1.33348 2.16745 1.334 1.97856 1.34943C1.79745 1.36423 1.7303 1.38934 1.69734 1.40614C1.5719 1.47005 1.46991 1.57204 1.406 1.69748C1.3892 1.73045 1.36408 1.79759 1.34929 1.9787C1.33572 2.1448 1.33368 2.35674 1.33338 2.66681H6.92131L6.66002 2.14423C6.42437 1.67293 6.36988 1.58339 6.3091 1.52387C6.23851 1.45472 6.15342 1.40213 6.06 1.36991ZM8.41202 2.66681L7.85259 1.54795C7.84013 1.52302 7.82781 1.49829 7.81558 1.47376C7.63909 1.1196 7.48387 0.808139 7.24206 0.571307C7.03027 0.363874 6.77501 0.206118 6.49477 0.109453C6.1748 -0.000911226 5.82681 -0.000451637 5.43111 7.08973e-05C5.4037 0.000107057 5.37607 0.000143536 5.3482 0.000143536L2.77431 0.0001429C2.42287 0.000130979 2.1197 0.000120647 1.86998 0.0205232C1.60642 0.0420572 1.34427 0.0896011 1.09202 0.21813C0.715696 0.409877 0.409735 0.715838 0.217988 1.09216C0.0894588 1.34442 0.0419148 1.60656 0.0203808 1.87013C-2.16787e-05 2.11984 -1.13475e-05 2.42301 5.73406e-07 2.77445L8.91298e-07 9.49434C-7.6123e-06 10.031 -1.46056e-05 10.4739 0.0294636 10.8347C0.0600804 11.2094 0.12579 11.5539 0.290651 11.8775C0.546313 12.3792 0.954261 12.7872 1.45603 13.0428C1.77958 13.2077 2.12405 13.2734 2.49878 13.304C2.85958 13.3335 3.30248 13.3335 3.83912 13.3335H10.8276C11.3642 13.3335 11.8071 13.3335 12.1679 13.304C12.5426 13.2734 12.8871 13.2077 13.2106 13.0428C13.7124 12.7872 14.1204 12.3792 14.376 11.8775C14.5409 11.5539 14.6066 11.2094 14.6372 10.8347C14.6667 10.4739 14.6667 10.031 14.6667 9.49436V6.50593C14.6667 5.96929 14.6667 5.52639 14.6372 5.16559C14.6066 4.79086 14.5409 4.44639 14.376 4.12284C14.1204 3.62107 13.7124 3.21312 13.2106 2.95746C12.8871 2.7926 12.5426 2.72689 12.1679 2.69627C11.8071 2.66679 11.3642 2.6668 10.8275 2.66681L8.41202 2.66681ZM7.98659 4.00014C7.99586 4.00034 8.00515 4.00034 8.01445 4.00014H10.8C11.3711 4.00014 11.7592 4.00066 12.0593 4.02518C12.3516 4.04906 12.5011 4.09234 12.6053 4.14547C12.8562 4.2733 13.0602 4.47727 13.188 4.72816C13.2411 4.83242 13.2844 4.98189 13.3083 5.27417C13.3328 5.57423 13.3333 5.96242 13.3333 6.53348V9.46681C13.3333 10.0379 13.3328 10.4261 13.3083 10.7261C13.2844 11.0184 13.2411 11.1679 13.188 11.2721C13.0602 11.523 12.8562 11.727 12.6053 11.8548C12.5011 11.9079 12.3516 11.9512 12.0593 11.9751C11.7592 11.9996 11.3711 12.0001 10.8 12.0001H3.86667C3.29562 12.0001 2.90742 11.9996 2.60736 11.9751C2.31508 11.9512 2.16561 11.9079 2.06135 11.8548C1.81046 11.727 1.60649 11.523 1.47866 11.2721C1.42553 11.1679 1.38225 11.0184 1.35837 10.7261C1.33385 10.4261 1.33333 10.0379 1.33333 9.46681V4.00014H7.98659ZM6.47141 5.86207C6.73176 6.12242 6.73176 6.54453 6.47141 6.80488L5.27614 8.00014L6.47141 9.19541C6.73176 9.45576 6.73176 9.87787 6.47141 10.1382C6.21106 10.3986 5.78895 10.3986 5.5286 10.1382L3.86193 8.47155C3.60158 8.2112 3.60158 7.78909 3.86193 7.52874L5.5286 5.86207C5.78895 5.60172 6.21106 5.60172 6.47141 5.86207ZM8.19526 5.86207C8.45561 5.60172 8.87772 5.60172 9.13807 5.86207L10.8047 7.52874C11.0651 7.78909 11.0651 8.2112 10.8047 8.47155L9.13807 10.1382C8.87772 10.3986 8.45561 10.3986 8.19526 10.1382C7.93491 9.87787 7.93491 9.45576 8.19526 9.19541L9.39053 8.00014L8.19526 6.80488C7.93491 6.54453 7.93491 6.12242 8.19526 5.86207Z" fill="#1C1F23" fill-opacity="0.8"/>
</svg>
